<svg width="30" height="30" viewBox="0 0 30 30" fill="none" xmlns="http://www.w3.org/2000/svg">
<path d="M15 2.5C8.09625 2.5 2.5 8.09557 2.5 14.9985C2.5 21.9014 8.09625 27.4969 15 27.4969C17.0222 27.4996 19.0146 27.0097 20.805 26.0696L26.1675 27.4657C26.3467 27.5124 26.5349 27.5114 26.7136 27.4629C26.8923 27.4144 27.0552 27.32 27.1862 27.1892C27.3172 27.0584 27.4117 26.8956 27.4604 26.7169C27.5091 26.5383 27.5102 26.3501 27.4637 26.1709L26.0687 20.8103C27.0114 19.0182 27.5027 17.0233 27.5 14.9985C27.5 8.09557 21.9037 2.5 15 2.5ZM13.435 16.2483H19.0625L19.19 16.2571C19.4144 16.2879 19.62 16.399 19.7689 16.5697C19.9177 16.7404 19.9997 16.9592 19.9997 17.1857C19.9997 17.4122 19.9177 17.631 19.7689 17.8017C19.62 17.9724 19.4144 18.0835 19.19 18.1143L19.0625 18.1231H13.435L13.3087 18.1143C13.0844 18.0835 12.8787 17.9724 12.7299 17.8017C12.581 17.631 12.499 17.4122 12.499 17.1857C12.499 16.9592 12.581 16.7404 12.7299 16.5697C12.8787 16.399 13.0844 16.2879 13.3087 16.2571L13.435 16.2483ZM10.9375 11.8739H19.0625L19.19 11.8826C19.4144 11.9135 19.62 12.0245 19.7689 12.1952C19.9177 12.3659 19.9997 12.5848 19.9997 12.8112C19.9997 13.0377 19.9177 13.2565 19.7689 13.4272C19.62 13.598 19.4144 13.709 19.19 13.7399L19.0625 13.7486H10.9375L10.81 13.7399C10.5856 13.709 10.38 13.598 10.2311 13.4272C10.0823 13.2565 10.0003 13.0377 10.0003 12.8112C10.0003 12.5848 10.0823 12.3659 10.2311 12.1952C10.38 12.0245 10.5856 11.9135 10.81 11.8826L10.9375 11.8739Z" fill="white"/>
</svg>
