<svg width="32" height="32" viewBox="0 0 32 32" fill="none" xmlns="http://www.w3.org/2000/svg">
<path d="M19.75 27.75H12.25C12.1125 27.75 12 27.8625 12 28V29C12 29.5531 12.4469 30 13 30H19C19.5531 30 20 29.5531 20 29V28C20 27.8625 19.8875 27.75 19.75 27.75ZM16 2C10.3406 2 5.75 6.59062 5.75 12.25C5.75 16.0437 7.8125 19.3562 10.875 21.1281V24.75C10.875 25.3031 11.3219 25.75 11.875 25.75H20.125C20.6781 25.75 21.125 25.3031 21.125 24.75V21.1281C24.1875 19.3562 26.25 16.0437 26.25 12.25C26.25 6.59062 21.6594 2 16 2ZM19.9969 19.1812L18.875 19.8312V23.5H13.125V19.8312L12.0031 19.1812C9.54375 17.7594 8 15.1406 8 12.25C8 7.83125 11.5813 4.25 16 4.25C20.4187 4.25 24 7.83125 24 12.25C24 15.1406 22.4563 17.7594 19.9969 19.1812Z" fill="#DACD56"/>
</svg>
