<svg width="39" height="38" viewBox="0 0 39 38" fill="none" xmlns="http://www.w3.org/2000/svg">
<rect x="0.5" width="38" height="38" rx="19" fill="#182458"/>
<path d="M18.25 5.25V6.5H13.25C12.2554 6.5 11.3016 6.89509 10.5983 7.59835C9.89509 8.30161 9.5 9.25544 9.5 10.25V14C9.5 15.6576 10.1585 17.2473 11.3306 18.4194C12.5027 19.5915 14.0924 20.25 15.75 20.25H23.25C24.9076 20.25 26.4973 19.5915 27.6694 18.4194C28.8415 17.2473 29.5 15.6576 29.5 14V10.25C29.5 9.25544 29.1049 8.30161 28.4017 7.59835C27.6984 6.89509 26.7446 6.5 25.75 6.5H20.75V5.25H18.25ZM12 10.25C12 9.91848 12.1317 9.60054 12.3661 9.36612C12.6005 9.1317 12.9185 9 13.25 9H25.75C26.0815 9 26.3995 9.1317 26.6339 9.36612C26.8683 9.60054 27 9.91848 27 10.25V14C27 14.9946 26.6049 15.9484 25.9017 16.6517C25.1984 17.3549 24.2446 17.75 23.25 17.75H15.75C14.7554 17.75 13.8016 17.3549 13.0983 16.6517C12.3951 15.9484 12 14.9946 12 14V10.25ZM16.375 15.25C16.8723 15.25 17.3492 15.0525 17.7008 14.7008C18.0525 14.3492 18.25 13.8723 18.25 13.375C18.25 12.8777 18.0525 12.4008 17.7008 12.0492C17.3492 11.6975 16.8723 11.5 16.375 11.5C15.8777 11.5 15.4008 11.6975 15.0492 12.0492C14.6975 12.4008 14.5 12.8777 14.5 13.375C14.5 13.8723 14.6975 14.3492 15.0492 14.7008C15.4008 15.0525 15.8777 15.25 16.375 15.25ZM22.625 15.25C23.1223 15.25 23.5992 15.0525 23.9508 14.7008C24.3025 14.3492 24.5 13.8723 24.5 13.375C24.5 12.8777 24.3025 12.4008 23.9508 12.0492C23.5992 11.6975 23.1223 11.5 22.625 11.5C22.1277 11.5 21.6508 11.6975 21.2992 12.0492C20.9475 12.4008 20.75 12.8777 20.75 13.375C20.75 13.8723 20.9475 14.3492 21.2992 14.7008C21.6508 15.0525 22.1277 15.25 22.625 15.25ZM12 31.5C12 29.5109 12.7902 27.6032 14.1967 26.1967C15.6032 24.7902 17.5109 24 19.5 24C21.4891 24 23.3968 24.7902 24.8033 26.1967C26.2098 27.6032 27 29.5109 27 31.5H29.5C29.5 28.8478 28.4464 26.3043 26.5711 24.4289C24.6957 22.5536 22.1522 21.5 19.5 21.5C16.8478 21.5 14.3043 22.5536 12.4289 24.4289C10.5536 26.3043 9.5 28.8478 9.5 31.5H12Z" fill="white"/>
</svg>
